<mxfile host="app.diagrams.net" modified="2024-05-15T10:00:23.182Z" agent="Mozilla/5.0 (Windows NT 6.1; Win64; x64; rv:109.0) Gecko/20100101 Firefox/115.0" etag="GKc8MBYHMJVPTaYiLAva" version="24.3.1" type="device">
  <diagram name="Page-1" id="ZiJiCp_2_cmmumTfo0hJ">
    <mxGraphModel dx="455" dy="365" grid="1" gridSize="10" guides="1" tooltips="1" connect="1" arrows="1" fold="1" page="1" pageScale="1" pageWidth="850" pageHeight="1100" math="1" shadow="0">
      <root>
        <mxCell id="0" />
        <mxCell id="1" parent="0" />
        <mxCell id="LWi2j8RrwO2fDs9rxQlg-6" value="" style="endArrow=none;html=1;rounded=0;fillColor=#f8cecc;strokeColor=#FFCC99;strokeWidth=60;opacity=40;" edge="1" parent="1">
          <mxGeometry width="50" height="50" relative="1" as="geometry">
            <mxPoint x="280" y="160" as="sourcePoint" />
            <mxPoint x="600" y="400" as="targetPoint" />
          </mxGeometry>
        </mxCell>
        <mxCell id="LWi2j8RrwO2fDs9rxQlg-1" value="" style="endArrow=none;html=1;rounded=0;fillColor=#f8cecc;strokeColor=#FF9933;strokeWidth=3;" edge="1" parent="1">
          <mxGeometry width="50" height="50" relative="1" as="geometry">
            <mxPoint x="280" y="120" as="sourcePoint" />
            <mxPoint x="600" y="360" as="targetPoint" />
          </mxGeometry>
        </mxCell>
        <mxCell id="LWi2j8RrwO2fDs9rxQlg-3" value="" style="endArrow=none;html=1;rounded=0;fillColor=#f8cecc;strokeColor=#FF9933;strokeWidth=3;" edge="1" parent="1">
          <mxGeometry width="50" height="50" relative="1" as="geometry">
            <mxPoint x="280" y="200" as="sourcePoint" />
            <mxPoint x="600" y="440" as="targetPoint" />
          </mxGeometry>
        </mxCell>
        <mxCell id="LWi2j8RrwO2fDs9rxQlg-4" value="" style="endArrow=none;html=1;rounded=0;fillColor=#f8cecc;strokeColor=#67AB9F;strokeWidth=2;dashed=1;" edge="1" parent="1">
          <mxGeometry width="50" height="50" relative="1" as="geometry">
            <mxPoint x="440" y="120" as="sourcePoint" />
            <mxPoint x="440" y="400" as="targetPoint" />
          </mxGeometry>
        </mxCell>
        <mxCell id="LWi2j8RrwO2fDs9rxQlg-5" value="" style="endArrow=none;html=1;rounded=0;fillColor=#f8cecc;strokeColor=#B5739D;strokeWidth=2;dashed=1;" edge="1" parent="1">
          <mxGeometry width="50" height="50" relative="1" as="geometry">
            <mxPoint x="280" y="280" as="sourcePoint" />
            <mxPoint x="620" y="280" as="targetPoint" />
          </mxGeometry>
        </mxCell>
        <mxCell id="LWi2j8RrwO2fDs9rxQlg-7" value="" style="shape=curlyBracket;whiteSpace=wrap;html=1;rounded=1;labelPosition=left;verticalLabelPosition=middle;align=right;verticalAlign=middle;rotation=-90;strokeWidth=1;" vertex="1" parent="1">
          <mxGeometry x="323" y="159" width="20" height="100" as="geometry" />
        </mxCell>
        <mxCell id="LWi2j8RrwO2fDs9rxQlg-12" value="" style="endArrow=none;html=1;rounded=0;fillColor=#f8cecc;strokeColor=#B9E0A5;strokeWidth=2;dashed=1;" edge="1" parent="1">
          <mxGeometry width="50" height="50" relative="1" as="geometry">
            <mxPoint x="460" y="120" as="sourcePoint" />
            <mxPoint x="460" y="400" as="targetPoint" />
          </mxGeometry>
        </mxCell>
        <mxCell id="LWi2j8RrwO2fDs9rxQlg-13" value="" style="endArrow=blockThin;html=1;rounded=0;endSize=4;endFill=1;strokeColor=#737373;" edge="1" parent="1">
          <mxGeometry width="50" height="50" relative="1" as="geometry">
            <mxPoint x="440" y="199" as="sourcePoint" />
            <mxPoint x="460" y="199" as="targetPoint" />
          </mxGeometry>
        </mxCell>
        <mxCell id="LWi2j8RrwO2fDs9rxQlg-15" value="&lt;font style=&quot;font-size: 16px;&quot;&gt;$$\phi$$&lt;/font&gt;" style="text;html=1;align=center;verticalAlign=middle;whiteSpace=wrap;rounded=0;" vertex="1" parent="1">
          <mxGeometry x="420" y="170" width="60" height="30" as="geometry" />
        </mxCell>
        <mxCell id="LWi2j8RrwO2fDs9rxQlg-17" value="&lt;font style=&quot;font-size: 16px;&quot;&gt;$$J_{PP}=2\Delta$$&lt;/font&gt;" style="text;html=1;align=center;verticalAlign=middle;whiteSpace=wrap;rounded=0;" vertex="1" parent="1">
          <mxGeometry x="304" y="212" width="60" height="30" as="geometry" />
        </mxCell>
        <mxCell id="LWi2j8RrwO2fDs9rxQlg-21" value="" style="endArrow=none;html=1;rounded=0;strokeColor=#FF0000;strokeWidth=4;" edge="1" parent="1">
          <mxGeometry width="50" height="50" relative="1" as="geometry">
            <mxPoint x="385" y="280" as="sourcePoint" />
            <mxPoint x="460" y="280" as="targetPoint" />
          </mxGeometry>
        </mxCell>
        <mxCell id="LWi2j8RrwO2fDs9rxQlg-22" value="" style="endArrow=none;html=1;rounded=0;strokeColor=#FF0000;strokeWidth=4;" edge="1" parent="1">
          <mxGeometry width="50" height="50" relative="1" as="geometry">
            <mxPoint x="460" y="281" as="sourcePoint" />
            <mxPoint x="460" y="331" as="targetPoint" />
          </mxGeometry>
        </mxCell>
        <mxCell id="LWi2j8RrwO2fDs9rxQlg-23" value="" style="endArrow=none;html=1;rounded=0;strokeColor=#FF33FF;strokeWidth=4;" edge="1" parent="1">
          <mxGeometry width="50" height="50" relative="1" as="geometry">
            <mxPoint x="460" y="280" as="sourcePoint" />
            <mxPoint x="490" y="280" as="targetPoint" />
          </mxGeometry>
        </mxCell>
        <mxCell id="LWi2j8RrwO2fDs9rxQlg-24" value="" style="endArrow=none;html=1;rounded=0;strokeColor=#FF33FF;strokeWidth=4;" edge="1" parent="1">
          <mxGeometry width="50" height="50" relative="1" as="geometry">
            <mxPoint x="460" y="258" as="sourcePoint" />
            <mxPoint x="460" y="278" as="targetPoint" />
          </mxGeometry>
        </mxCell>
        <mxCell id="LWi2j8RrwO2fDs9rxQlg-25" value="&lt;font style=&quot;font-size: 15px;&quot;&gt;$$V_t$$&lt;/font&gt;" style="text;html=1;align=center;verticalAlign=middle;whiteSpace=wrap;rounded=0;" vertex="1" parent="1">
          <mxGeometry x="234" y="264" width="60" height="30" as="geometry" />
        </mxCell>
        <mxCell id="LWi2j8RrwO2fDs9rxQlg-26" value="&lt;font style=&quot;font-size: 15px;&quot;&gt;$$T_t$$&lt;/font&gt;" style="text;html=1;align=center;verticalAlign=middle;whiteSpace=wrap;rounded=0;" vertex="1" parent="1">
          <mxGeometry x="410" y="400" width="60" height="30" as="geometry" />
        </mxCell>
      </root>
    </mxGraphModel>
  </diagram>
</mxfile>
